<?xml version="1.0" encoding="UTF-8"?>
<svg viewBox="0 0 640 480" xmlns="http://www.w3.org/2000/svg">
 <path d="m380.46 341.58c-46.108-63.135-92.217-126.27-138.32-189.4l-18.66-25.551c-0.479-0.655 0.767-5.542 0.40601-7.134-1.936-8.548-7.986-17.802-11.527-25.855-7.461-16.967-16.39-21.277-34.935-19.678 5.53 4.962 12.665 6.029 18.354 9.99 10.326 7.189 13.872 24.666 18.771 35.631 2.56 5.729-12.334 11.163-16.858 13.991-10.47 6.543-9.825 4.841-20.896 1.822-16.1-4.391-31.94-2.316-46.617 5.796-14.839 8.202-28.873 11.671-45.679 7.937-15.292-3.398-23.516-15.037-33.143-26.2-12.148-14.085-23.784-29.231-36.899-42.346-4.134-4.133-9.65-13.087 0.697-11.615 6.863 0.977 12.595 4.531 19.631 4.531 10.853 0 22.514-12.793 31.594-17.889 14.615-8.201 29.701-12.835 45.532-17.888 9.796-3.126 20.761-10.364 17.888-22.534-4.327 5.541-4.996 15.996-13.707 17.887 3.324-4.869 4.47-9.438 5.808-15.1 2.343-9.92 3.805-13.035 14.405-6.852 13.501 7.875 21.921 20.036 26.483 34.846 2.236 7.259 9.8583 21.386 14.292 27.718 5.923 8.458 11.75 4.0662 21.856 3.1952-21.877-10.013-28.028-45.142-43.583-61.695-12.602-13.41-34.578-25.093-41.119-2.208-1.539 5.385-1.591 12.599-5.809 16.146-6.197 5.211-20.854 6.937-29.154 10.686-13.152 5.94-25.263 13.087-37.054 21.373 0.021-0.030003 0.546-0.507 0.465-0.464-10.495 11.076-38.689-11.762-42.512 9.06-2.181 11.875 18.165 28.03 24.891 35.714 10.593 12.104 21.561 27.176 32.722 37.463-4.453 3.358-14.374 10.587-14.17 17.423 0.134 4.489 2.69 5.953 6.039 7.898 2.186 1.27 7.006-0.86 7.346 1.858 0.315 2.521 0.083 6.264 1.481 8.596 1.617 2.699 3.104 3.721 6.042 4.879 9.166 3.615 9.056-1.454 11.266 9.64 0.442 2.217 3.369 4.902 5.577 5.344 3.022 0.604 6.115 0.57901 9.19 0.74 3.275 0.172 1.292 6.13 2.541 8.668 1.466 2.978 2.769 4.543 5.923 5.809 2.598 1.041 6.458 0.604 9.19 0.81999 3.223 0.254 1.346 5.935 2.541 8.472 1.083 2.299 2.251 4.57 4.762 5.575 1.331 0.53201 2.829 0.692 4.248 0.77 9.962 0.539 4.606 0.823 8.414 7.826 1.46 2.686 1.688 4.375 4.415 6.272 1.205 0.838 3.237 0.92799 4.63 1.038 9.803 0.773 4.986 0.742 8.612 7.79 1.308 2.543 1.388 4.235 3.949 6.155 6.532 4.9 11.975-2.81 13.329 8.016 1.446 11.553 16.368 5.175 17.335 12.66 1.685 13.047 16.396 7.889 17.539 15.217 1.918 12.288 16.73 8.929 17.54 15.217 1.65 12.812 16.799 8.358 17.656 15.216 0.47299 3.778 0.78999 6.899 3.949 9.292 3.145 2.382 12.789 0.68701 13.19 3.253 0.571 3.661 0.556 8.586 3.537 11.384 3.072 2.883 13.775 1.519 14.083 3.912 0.50302 3.904 0.51901 8.332 3.571 11.188 3.058 2.861 13.829 1.912 14.084 3.948 0.573 4.581 0.46802 8.279 3.805 11.616 3.009 3.009 13.174 0.694 13.655 3.68 1.86 11.539 4.364 13.285 16.094 13.903 1.732 0.091003 3.039 8.894 6.955 10.526 4.061 1.693 6.904-0.47498 9.758-2.556 5.643-4.114 10.346-12.351 14.799-17.666 7.935-9.473 15.87-18.945 23.806-28.418 4.129-4.928 10.69-10.58 6-17.335"/>
 <path d="m162.01 47.479c-2.155-10.249-7.831-20.373-15.216-27.761-4.122-4.123-17.624-16.078-23.581-11.036-4.249 3.597-4.447 18.997-8.131 24.393 8.711-1.891 9.38-12.346 13.707-17.887 2.554 10.82-6.832 19.376-16.262 22.069-15.27 4.362-29.923 9.071-43.97 16.636-10.276 5.534-20.863 16.985-31.996 19.373-6.542 1.403-12.938-1.956-19.049-3.484-7.468-1.869-13.437 1.2-6.39 8.246 10.976 10.977 20.747 23.481 30.916 35.27 9.923 11.506 19.632 27.056 34.016 33.379 15.059 6.62 31.759 4.972 46.304-1.814 14.489-6.76 28.942-14.999 45.683-11.359 3.011 0.655 17.369 7.115 19.182 5.982 9.056-5.66 18.11-11.319 27.166-16.979 0.55199-0.345-12.309-33.178-16.835-36.579-4.846-3.642-12.672-7.35-18.353-9.641-7.133-2.878-14.208-1.242-22.562-0.45-3.651 0.346-4.215 9.911-7.871 13.112-9.385 8.215-26.327 5.849-37.868 11.498-11.208 5.486-17.741 22.05-32.059 18.47-12.682-3.172-16.946-16.579-10.685-27.297 12.3-21.057 48.415-35.944 72.016-32.756-21.568-3.777-70.871 7.649-76.663 33.452-3.963-18.786 38.01-34.89 51.4-36.85 17.638-2.581 39.13-3.02 39.433 20.588 7.356-0.697 14.713-1.394 22.069-2.09-7.788-7.425-11.094-16.834-14.401-26.485" fill="#fff"/>
 <path d="m141.18 58.862c0.61801 0.174 1.205 0.357 1.858 0.465-0.653-0.108-1.24-0.291-1.858-0.465"/>
 <path d="m153.16 64.643c-6.769-33.748-94.109 1.7921-88.649 27.671 5.711-25.443 57.237-39.114 78.521-32.987-21.229-5.56-90.847 19.904-75.036 50.411 12.758 24.616 31.44-3.191 43.905-9.292 14.815-7.252 42.124-2.416 43.443-24.393-5.068-0.982-7.091 10.369-13.474 12.777-10.863 4.099-22.739 2.44-33.557 8.622-9.524 5.442-23.639 28.313-35.44 12.286-20.936-28.431 76.074-65.19 76.929-29.989 6.968 1.285 6.4741-5.697 4.3471-9.293"/>
 <path d="m52.664 74.427c1.22-1.22 1.22-1.22 0 0"/>
 <path d="m54.291 72.336c0.985-0.645-0.184 0.121 0 0"/>
 <path d="m55.221 70.477"/>
 <path d="m48.251 59.559c0.218 0 0.218 0 0 0"/>
 <path d="m44.068 60.023c-0.364 0.377-0.364 0.377 0 0"/>
 <path d="m47.09 59.327c-0.367 0.376-0.367 0.376 0 0"/>
 <path d="m45.463 59.559c-0.19 0.37-0.19 0.37 0 0"/>
 <path d="m210.17 121.35c-9.082 4.73-17.164 11.514-26.716 9.758-9.749-1.792-17.156-5.674-27.644-4.646-19.068 1.868-33.604 16.214-52.504 17.889-20.767 1.84-32.41-8.412-45.198-22.36-13.417-14.637-26.468-29.947-39.129-45.244 10.723 3.026 22.917 3.727 30.434-6.041-14.519 10.577-22.655 1.296-37.17 1.627 6.769 12.233 20.032 23.256 29.242 34.001 13.716 16.002 25.522 35.253 47.016 40.208 23.715 5.469 39.082-12.435 60.964-16.082 11.229-1.871 21.707-1.061 32.322 3.185 9.807 3.923 20.788-6.699 28.383-12.295"/>
 <g fill="#fff">
  <path d="m17.817 79.073v-0.232 0.232z"/>
  <path d="m118.6 46.974c7.803-1.39 15.418-5.972 18.819-13.938 1.403-3.288 4.83-14.369-1.396-15.333-5.091-0.788-9.389 15.177-13.938 18.352 3.009 1.028 3.443 1.689 2.788 4.414 6.491-7.066 5.193-16.086 8.365-24.16 0.054993 0.131-0.992 0.399-0.93001 0.465 21.436 3.859 29.005 25.837 35.312 43.441 4.127 11.52 10.402 21.378 21.14 27.645 4.923 2.873 12.875 3.661 15.565 9.292-27.815-17.789-46.6-35.384-75.124-52.049"/>
  <path d="m201.11 89.527c0.112-0.113 0.104-0.106 0 0"/>
 </g>
 <path d="m188.1 99.981c-20.807-2.385-12.859 34.85 4.646 22.302-4.857 2.163-10.658 0.779-13.705-3.717 12.769 13.128 28.349-15.277 9.059-18.585"/>
 <path d="m134.21 110.67c-1.414 9.294 6.692 21.315 16.958 13.241-4.858 2.364-10.553 0.867-13.708-3.484 7.667 6.776 21.192 0.174 18.121-10.57-3.356-11.744-19.15-9.515-21.371 0.813"/>
 <path d="m95.41 126c-1.647 9.988 6.842 20.183 17.189 13.242-4.988 2.036-10.704 0.78099-13.938-3.717 7.317 7.277 21.121 0.143 18.121-10.337-3.268-11.416-19.046-10.253-21.372 0.812"/>
 <path d="m114.46 129.02c-1.529 10.846-18.142 8.195-16.495-2.556 1.686-11.013 18.642-7.776 16.495 2.556" fill="#fff"/>
 <path d="m112.37 127.63c-0.776 5.962-7.555 7.741-11.847 4.181 4.102 7.338 17.398-1.152 11.382-8.362 0.51 1.336 0.406 3.754 0.465 4.181"/>
 <path d="m107.72 122.05c-2.309 1.652-2.39 7.448-3.02 11.383 0.464 0.077988 0.92899 0.155 1.393 0.233 0.543-3.873 1.085-7.744 1.627-11.616"/>
 <path d="m153.25 113.69c-1.11 10.949-18.349 8.367-16.493-2.555 1.924-11.322 19.045-6.886 16.493 2.555" fill="#fff"/>
 <path d="m151.16 112.53c-1.04 5.943-8.101 7.898-12.081 3.717 5.602 8.062 17.658-0.89899 11.151-8.363 1.19 1.693 0.701 2.946 0.92999 4.646"/>
 <path d="m142.18 107.42c0.14801 3.08 4.329 6.413 6.969 9.292 0.31-0.232 0.619-0.464 0.92799-0.697-2.632-2.865-5.265-5.73-7.897-8.595"/>
 <path d="m194.84 112.06c-1.657 10.845-18.315 8.173-16.728-2.554 1.627-10.99 18.747-7.826 16.728 2.554" fill="#fff"/>
 <path d="m192.75 110.67c-0.81801 5.952-7.656 7.787-11.848 4.181 3.601 7.065 18.106-0.604 10.92-8.596 0.91699 1.553 0.78699 3.62 0.92799 4.415"/>
 <path d="m191.35 108.34c-2.831-0.403-6.829 3.516-9.989 5.808 0.232 0.31 0.465 0.62 0.69699 0.929 3.097-2.246 6.194-4.492 9.292-6.737"/>
 <path d="m205.99 134.13c32.328 44.251 64.656 88.503 96.984 132.75 17.03 23.313 34.062 46.624 51.092 69.936 1.383 1.893 7.858 8.239 6.095 10.341-9.032 10.764-18.064 21.526-27.097 32.29 4.111-6.568 24.32-30.108 19.777-36.336-8.918-12.227-17.836-24.454-26.755-36.681l-92.26-126.49c-9.649-13.229-19.299-26.458-28.948-39.688-3.005-4.119-2.205-3.821-7.09-0.77899-10.386 6.47-11.661 4.708-22.825 1.518-15.93-4.551-31.801 1.261-45.55 9.222-14.271 8.264-28.56 12.115-45.032 9.843-6.791-0.937-12.217-5.113-18.476-6.417-3.891-0.811-2.675-4.526-6.116-1.086-2.608 2.607-5.215 5.215-7.823 7.823 13.547 0.767 12.309 0.67099 14.067 14.083 0.254 1.938 10.608 1.569 12.583 1.716 5.374 0.401 4.036 6.562 4.763 11.406 1.26 8.398 15.121-1.906 16.802 9.502 0.689 4.673-0.603 8.454 4.353 8.824 4.585 0.34201 12.16-1.465 12.848 3.694 0.26199 1.961 0.309 11.087 2.352 11.239 2.741 0.20401 12.849-0.711 14.703 1.098 1.83 1.785 1.584 10.735 1.976 13.386 0.295 2.001 12.521 1.525 14.816 1.662 2.051 0.123 2.249 9.442 2.54 11.414 0.707 4.788 5.384 3.181 9.854 3.514 12.596 0.939 1.495 14.244 12.982 14.922 1.777 0.104 10.656-0.44601 10.9 1.421 0.345 2.627-0.034012 11.606 1.757 13.385 1.812 1.799 11.993 0.89499 14.702 1.097 2.131 0.159 2.504 11.187 2.838 13.451 0.286 1.938 10.617 1.412 12.596 1.529 4.975 0.297 3.601 4.105 4.213 8.778 1.515 11.55 15.77 1.055 16.896 9.503 0.26199 1.961 0.31 11.087 2.353 11.239 2.741 0.20401 12.849-0.71201 14.703 1.097 1.83 1.785 1.585 10.736 1.976 13.387 0.29999 2.026 12.509 1.71 14.816 1.882 2.06 0.15302 2.244 9.269 2.539 11.239 0.711 4.734 5.443 3.139 9.854 3.469 12.594 0.939 1.505 14.151 12.982 14.995 1.771 0.13101 10.654-0.29199 10.901 1.566 0.34698 2.602-0.016022 11.396 1.755 13.167 1.796 1.795 12.006 0.896 14.703 1.097 2.042 0.15198 2.17 8.469 2.489 10.519 6.999-8.399 47.683-48.107 42.146-55.699-17.729-24.313-35.457-48.624-53.186-72.937-24.379-33.431-48.757-66.861-73.136-100.29-8.232-11.29-16.466-22.58-24.698-33.87-6.873-9.429-4.212-7.519-14.714-2.734" fill="#fff"/>
</svg>
